<mxfile host="app.diagrams.net" agent="Mozilla/5.0 (Windows NT 10.0; Win64; x64) AppleWebKit/537.36 (KHTML, like Gecko) Chrome/131.0.0.0 Safari/537.36" version="28.0.4">
  <diagram name="第 1 页" id="fK5WTWJKohCwqcLiLXkj">
    <mxGraphModel dx="1747" dy="944" grid="1" gridSize="10" guides="1" tooltips="1" connect="1" arrows="1" fold="1" page="1" pageScale="1" pageWidth="827" pageHeight="1169" math="0" shadow="0">
      <root>
        <mxCell id="0" />
        <mxCell id="1" parent="0" />
        <mxCell id="MpkrW4YKsJFV3PJm8Ltm-3" value="" style="edgeStyle=orthogonalEdgeStyle;rounded=0;orthogonalLoop=1;jettySize=auto;html=1;" edge="1" parent="1" source="MpkrW4YKsJFV3PJm8Ltm-4" target="MpkrW4YKsJFV3PJm8Ltm-21">
          <mxGeometry relative="1" as="geometry">
            <mxPoint x="650" y="360" as="targetPoint" />
          </mxGeometry>
        </mxCell>
        <mxCell id="MpkrW4YKsJFV3PJm8Ltm-4" value="&lt;font&gt;exetend0&lt;/font&gt;" style="rounded=0;whiteSpace=wrap;html=1;hachureGap=4;fontFamily=Helvetica;labelBackgroundColor=none;fillColor=#e1d5e7;strokeColor=#9673a6;" vertex="1" parent="1">
          <mxGeometry x="390" y="380" width="170" height="30" as="geometry" />
        </mxCell>
        <mxCell id="MpkrW4YKsJFV3PJm8Ltm-5" value="exetend1" style="rounded=0;whiteSpace=wrap;html=1;hachureGap=4;fontFamily=Helvetica;labelBackgroundColor=none;fillColor=#e1d5e7;strokeColor=#9673a6;" vertex="1" parent="1">
          <mxGeometry x="390" y="410" width="170" height="30" as="geometry" />
        </mxCell>
        <mxCell id="MpkrW4YKsJFV3PJm8Ltm-6" value="exetend2" style="rounded=0;whiteSpace=wrap;html=1;hachureGap=4;fontFamily=Helvetica;labelBackgroundColor=none;fillColor=#e1d5e7;strokeColor=#9673a6;" vertex="1" parent="1">
          <mxGeometry x="390" y="440" width="170" height="30" as="geometry" />
        </mxCell>
        <mxCell id="MpkrW4YKsJFV3PJm8Ltm-7" value="... ..." style="rounded=0;whiteSpace=wrap;html=1;hachureGap=4;fontFamily=Helvetica;labelBackgroundColor=none;fillColor=#e1d5e7;strokeColor=#9673a6;" vertex="1" parent="1">
          <mxGeometry x="390" y="470" width="170" height="30" as="geometry" />
        </mxCell>
        <mxCell id="MpkrW4YKsJFV3PJm8Ltm-8" value="exetend255" style="rounded=0;whiteSpace=wrap;html=1;hachureGap=4;fontFamily=Helvetica;labelBackgroundColor=none;fillColor=#e1d5e7;strokeColor=#9673a6;" vertex="1" parent="1">
          <mxGeometry x="390" y="500" width="170" height="30" as="geometry" />
        </mxCell>
        <mxCell id="MpkrW4YKsJFV3PJm8Ltm-9" style="edgeStyle=orthogonalEdgeStyle;rounded=0;orthogonalLoop=1;jettySize=auto;html=1;" edge="1" parent="1" source="MpkrW4YKsJFV3PJm8Ltm-10" target="MpkrW4YKsJFV3PJm8Ltm-26">
          <mxGeometry relative="1" as="geometry" />
        </mxCell>
        <mxCell id="MpkrW4YKsJFV3PJm8Ltm-10" value="exetend256" style="rounded=0;whiteSpace=wrap;html=1;hachureGap=4;fontFamily=Helvetica;labelBackgroundColor=none;fillColor=#ffe6cc;strokeColor=#d79b00;" vertex="1" parent="1">
          <mxGeometry x="390" y="530" width="170" height="30" as="geometry" />
        </mxCell>
        <mxCell id="MpkrW4YKsJFV3PJm8Ltm-11" value="..." style="rounded=0;whiteSpace=wrap;html=1;hachureGap=4;fontFamily=Helvetica;labelBackgroundColor=none;fillColor=#ffe6cc;strokeColor=#d79b00;" vertex="1" parent="1">
          <mxGeometry x="390" y="560" width="170" height="30" as="geometry" />
        </mxCell>
        <mxCell id="MpkrW4YKsJFV3PJm8Ltm-12" value="exetend511" style="rounded=0;whiteSpace=wrap;html=1;hachureGap=4;fontFamily=Helvetica;labelBackgroundColor=none;fillColor=#ffe6cc;strokeColor=#d79b00;" vertex="1" parent="1">
          <mxGeometry x="390" y="590" width="170" height="30" as="geometry" />
        </mxCell>
        <mxCell id="MpkrW4YKsJFV3PJm8Ltm-13" value="" style="shape=curlyBracket;whiteSpace=wrap;html=1;rounded=1;labelPosition=left;verticalLabelPosition=middle;align=right;verticalAlign=middle;" vertex="1" parent="1">
          <mxGeometry x="360" y="380" width="20" height="150" as="geometry" />
        </mxCell>
        <mxCell id="MpkrW4YKsJFV3PJm8Ltm-14" value="分组1" style="text;html=1;align=center;verticalAlign=middle;resizable=0;points=[];autosize=1;strokeColor=none;fillColor=none;" vertex="1" parent="1">
          <mxGeometry x="300" y="440" width="50" height="30" as="geometry" />
        </mxCell>
        <mxCell id="MpkrW4YKsJFV3PJm8Ltm-15" value="" style="shape=curlyBracket;whiteSpace=wrap;html=1;rounded=1;labelPosition=left;verticalLabelPosition=middle;align=right;verticalAlign=middle;" vertex="1" parent="1">
          <mxGeometry x="360" y="530" width="20" height="90" as="geometry" />
        </mxCell>
        <mxCell id="MpkrW4YKsJFV3PJm8Ltm-16" value="分组2" style="text;html=1;align=center;verticalAlign=middle;resizable=0;points=[];autosize=1;strokeColor=none;fillColor=none;" vertex="1" parent="1">
          <mxGeometry x="300" y="560" width="50" height="30" as="geometry" />
        </mxCell>
        <mxCell id="MpkrW4YKsJFV3PJm8Ltm-17" value="&lt;font&gt;FSP_HDR&lt;/font&gt;" style="rounded=0;whiteSpace=wrap;html=1;hachureGap=4;fontFamily=Helvetica;labelBackgroundColor=none;fillColor=#e1d5e7;strokeColor=#9673a6;" vertex="1" parent="1">
          <mxGeometry x="680" y="380" width="170" height="30" as="geometry" />
        </mxCell>
        <mxCell id="MpkrW4YKsJFV3PJm8Ltm-18" value="IBUF_BITMAP" style="rounded=0;whiteSpace=wrap;html=1;hachureGap=4;fontFamily=Helvetica;labelBackgroundColor=none;fillColor=#e1d5e7;strokeColor=#9673a6;" vertex="1" parent="1">
          <mxGeometry x="680" y="410" width="170" height="30" as="geometry" />
        </mxCell>
        <mxCell id="MpkrW4YKsJFV3PJm8Ltm-19" value="INODE" style="rounded=0;whiteSpace=wrap;html=1;hachureGap=4;fontFamily=Helvetica;labelBackgroundColor=none;fillColor=#e1d5e7;strokeColor=#9673a6;" vertex="1" parent="1">
          <mxGeometry x="680" y="440" width="170" height="30" as="geometry" />
        </mxCell>
        <mxCell id="MpkrW4YKsJFV3PJm8Ltm-20" value="... ..." style="rounded=0;whiteSpace=wrap;html=1;hachureGap=4;fontFamily=Helvetica;labelBackgroundColor=none;fillColor=#e1d5e7;strokeColor=#9673a6;" vertex="1" parent="1">
          <mxGeometry x="680" y="470" width="170" height="30" as="geometry" />
        </mxCell>
        <mxCell id="MpkrW4YKsJFV3PJm8Ltm-21" value="extend0的各个页" style="text;html=1;align=center;verticalAlign=middle;resizable=0;points=[];autosize=1;strokeColor=none;fillColor=none;" vertex="1" parent="1">
          <mxGeometry x="700" y="350" width="110" height="30" as="geometry" />
        </mxCell>
        <mxCell id="MpkrW4YKsJFV3PJm8Ltm-22" value="表空间结构" style="text;html=1;align=center;verticalAlign=middle;resizable=0;points=[];autosize=1;strokeColor=none;fillColor=none;" vertex="1" parent="1">
          <mxGeometry x="435" y="350" width="80" height="30" as="geometry" />
        </mxCell>
        <mxCell id="MpkrW4YKsJFV3PJm8Ltm-23" value="&lt;font&gt;XDES&lt;/font&gt;" style="rounded=0;whiteSpace=wrap;html=1;hachureGap=4;fontFamily=Helvetica;labelBackgroundColor=none;fillColor=#ffe6cc;strokeColor=#d79b00;" vertex="1" parent="1">
          <mxGeometry x="680" y="550" width="170" height="30" as="geometry" />
        </mxCell>
        <mxCell id="MpkrW4YKsJFV3PJm8Ltm-24" value="IBUF_BITMAP" style="rounded=0;whiteSpace=wrap;html=1;hachureGap=4;fontFamily=Helvetica;labelBackgroundColor=none;fillColor=#ffe6cc;strokeColor=#d79b00;" vertex="1" parent="1">
          <mxGeometry x="680" y="580" width="170" height="30" as="geometry" />
        </mxCell>
        <mxCell id="MpkrW4YKsJFV3PJm8Ltm-25" value="... ..." style="rounded=0;whiteSpace=wrap;html=1;hachureGap=4;fontFamily=Helvetica;labelBackgroundColor=none;fillColor=#ffe6cc;strokeColor=#d79b00;" vertex="1" parent="1">
          <mxGeometry x="680" y="610" width="170" height="30" as="geometry" />
        </mxCell>
        <mxCell id="MpkrW4YKsJFV3PJm8Ltm-26" value="extend256的各个页" style="text;html=1;align=center;verticalAlign=middle;resizable=0;points=[];autosize=1;strokeColor=none;fillColor=none;" vertex="1" parent="1">
          <mxGeometry x="690" y="520" width="130" height="30" as="geometry" />
        </mxCell>
        <mxCell id="MpkrW4YKsJFV3PJm8Ltm-27" value="Segment ID" style="rounded=0;whiteSpace=wrap;html=1;hachureGap=4;fontFamily=Helvetica;labelBackgroundColor=none;fillColor=#ffe6cc;strokeColor=#d79b00;" vertex="1" parent="1">
          <mxGeometry x="510" y="1030" width="170" height="30" as="geometry" />
        </mxCell>
        <mxCell id="MpkrW4YKsJFV3PJm8Ltm-28" value="Link Node" style="rounded=0;whiteSpace=wrap;html=1;hachureGap=4;fontFamily=Helvetica;labelBackgroundColor=none;fillColor=#ffe6cc;strokeColor=#d79b00;" vertex="1" parent="1">
          <mxGeometry x="510" y="1060" width="170" height="30" as="geometry" />
        </mxCell>
        <mxCell id="MpkrW4YKsJFV3PJm8Ltm-29" value="State" style="rounded=0;whiteSpace=wrap;html=1;hachureGap=4;fontFamily=Helvetica;labelBackgroundColor=none;fillColor=#ffe6cc;strokeColor=#d79b00;" vertex="1" parent="1">
          <mxGeometry x="510" y="1090" width="170" height="30" as="geometry" />
        </mxCell>
        <mxCell id="MpkrW4YKsJFV3PJm8Ltm-30" value="XDES Entry结构" style="text;html=1;align=center;verticalAlign=middle;resizable=0;points=[];autosize=1;strokeColor=none;fillColor=none;" vertex="1" parent="1">
          <mxGeometry x="530" y="1000" width="110" height="30" as="geometry" />
        </mxCell>
        <mxCell id="MpkrW4YKsJFV3PJm8Ltm-31" value="Page State Bitmap" style="rounded=0;whiteSpace=wrap;html=1;hachureGap=4;fontFamily=Helvetica;labelBackgroundColor=none;fillColor=#ffe6cc;strokeColor=#d79b00;" vertex="1" parent="1">
          <mxGeometry x="510" y="1120" width="170" height="30" as="geometry" />
        </mxCell>
        <mxCell id="MpkrW4YKsJFV3PJm8Ltm-32" value="指向前后XDES Entry" style="text;html=1;align=center;verticalAlign=middle;resizable=0;points=[];autosize=1;strokeColor=none;fillColor=none;" vertex="1" parent="1">
          <mxGeometry x="680" y="1060" width="140" height="30" as="geometry" />
        </mxCell>
        <mxCell id="MpkrW4YKsJFV3PJm8Ltm-33" value="NOT_FULL_N_USED" style="rounded=0;whiteSpace=wrap;html=1;hachureGap=4;fontFamily=Helvetica;labelBackgroundColor=none;fillColor=#ffe6cc;strokeColor=#d79b00;" vertex="1" parent="1">
          <mxGeometry x="510" y="710" width="170" height="30" as="geometry" />
        </mxCell>
        <mxCell id="MpkrW4YKsJFV3PJm8Ltm-34" value="FREE BASE" style="rounded=0;whiteSpace=wrap;html=1;hachureGap=4;fontFamily=Helvetica;labelBackgroundColor=none;fillColor=#ffe6cc;strokeColor=#d79b00;" vertex="1" parent="1">
          <mxGeometry x="510" y="740" width="170" height="30" as="geometry" />
        </mxCell>
        <mxCell id="MpkrW4YKsJFV3PJm8Ltm-35" value="NOT_FULL BASE" style="rounded=0;whiteSpace=wrap;html=1;hachureGap=4;fontFamily=Helvetica;labelBackgroundColor=none;fillColor=#ffe6cc;strokeColor=#d79b00;" vertex="1" parent="1">
          <mxGeometry x="510" y="770" width="170" height="30" as="geometry" />
        </mxCell>
        <mxCell id="MpkrW4YKsJFV3PJm8Ltm-36" value="INODE Entry结构" style="text;html=1;align=center;verticalAlign=middle;resizable=0;points=[];autosize=1;strokeColor=none;fillColor=none;" vertex="1" parent="1">
          <mxGeometry x="525" y="680" width="120" height="30" as="geometry" />
        </mxCell>
        <mxCell id="MpkrW4YKsJFV3PJm8Ltm-37" value="FULL BASE" style="rounded=0;whiteSpace=wrap;html=1;hachureGap=4;fontFamily=Helvetica;labelBackgroundColor=none;fillColor=#ffe6cc;strokeColor=#d79b00;" vertex="1" parent="1">
          <mxGeometry x="510" y="800" width="170" height="30" as="geometry" />
        </mxCell>
        <mxCell id="MpkrW4YKsJFV3PJm8Ltm-38" value="指向前后XDES Entry" style="text;html=1;align=center;verticalAlign=middle;resizable=0;points=[];autosize=1;strokeColor=none;fillColor=none;" vertex="1" parent="1">
          <mxGeometry x="680" y="740" width="140" height="30" as="geometry" />
        </mxCell>
        <mxCell id="MpkrW4YKsJFV3PJm8Ltm-39" value="Magic Number" style="rounded=0;whiteSpace=wrap;html=1;hachureGap=4;fontFamily=Helvetica;labelBackgroundColor=none;fillColor=#ffe6cc;strokeColor=#d79b00;" vertex="1" parent="1">
          <mxGeometry x="510" y="830" width="170" height="30" as="geometry" />
        </mxCell>
        <mxCell id="MpkrW4YKsJFV3PJm8Ltm-40" value="Fragment Array Entry 0" style="rounded=0;whiteSpace=wrap;html=1;hachureGap=4;fontFamily=Helvetica;labelBackgroundColor=none;fillColor=#ffe6cc;strokeColor=#d79b00;" vertex="1" parent="1">
          <mxGeometry x="510" y="860" width="170" height="30" as="geometry" />
        </mxCell>
        <mxCell id="MpkrW4YKsJFV3PJm8Ltm-41" value="Fragment Array Entry 1" style="rounded=0;whiteSpace=wrap;html=1;hachureGap=4;fontFamily=Helvetica;labelBackgroundColor=none;fillColor=#ffe6cc;strokeColor=#d79b00;" vertex="1" parent="1">
          <mxGeometry x="510" y="890" width="170" height="30" as="geometry" />
        </mxCell>
        <mxCell id="MpkrW4YKsJFV3PJm8Ltm-42" value="... ..." style="rounded=0;whiteSpace=wrap;html=1;hachureGap=4;fontFamily=Helvetica;labelBackgroundColor=none;fillColor=#ffe6cc;strokeColor=#d79b00;" vertex="1" parent="1">
          <mxGeometry x="510" y="920" width="170" height="30" as="geometry" />
        </mxCell>
        <mxCell id="MpkrW4YKsJFV3PJm8Ltm-43" value="Fragment Array Entry 32" style="rounded=0;whiteSpace=wrap;html=1;hachureGap=4;fontFamily=Helvetica;labelBackgroundColor=none;fillColor=#ffe6cc;strokeColor=#d79b00;" vertex="1" parent="1">
          <mxGeometry x="510" y="950" width="170" height="30" as="geometry" />
        </mxCell>
        <mxCell id="MpkrW4YKsJFV3PJm8Ltm-44" value="零散页面" style="text;html=1;align=center;verticalAlign=middle;resizable=0;points=[];autosize=1;strokeColor=none;fillColor=none;" vertex="1" parent="1">
          <mxGeometry x="715" y="860" width="70" height="30" as="geometry" />
        </mxCell>
        <mxCell id="MpkrW4YKsJFV3PJm8Ltm-45" value="&lt;font&gt;exetend0&lt;/font&gt;" style="rounded=0;whiteSpace=wrap;html=1;hachureGap=4;fontFamily=Helvetica;labelBackgroundColor=none;fillColor=#e1d5e7;strokeColor=#9673a6;" vertex="1" parent="1">
          <mxGeometry x="960" y="380" width="170" height="30" as="geometry" />
        </mxCell>
        <mxCell id="MpkrW4YKsJFV3PJm8Ltm-46" value="exetend1" style="rounded=0;whiteSpace=wrap;html=1;hachureGap=4;fontFamily=Helvetica;labelBackgroundColor=none;fillColor=#e1d5e7;strokeColor=#9673a6;" vertex="1" parent="1">
          <mxGeometry x="960" y="410" width="170" height="30" as="geometry" />
        </mxCell>
        <mxCell id="MpkrW4YKsJFV3PJm8Ltm-47" value="exetend2" style="rounded=0;whiteSpace=wrap;html=1;hachureGap=4;fontFamily=Helvetica;labelBackgroundColor=none;fillColor=#e1d5e7;strokeColor=#9673a6;" vertex="1" parent="1">
          <mxGeometry x="960" y="440" width="170" height="30" as="geometry" />
        </mxCell>
        <mxCell id="MpkrW4YKsJFV3PJm8Ltm-48" value="... ..." style="rounded=0;whiteSpace=wrap;html=1;hachureGap=4;fontFamily=Helvetica;labelBackgroundColor=none;fillColor=#e1d5e7;strokeColor=#9673a6;" vertex="1" parent="1">
          <mxGeometry x="960" y="470" width="170" height="30" as="geometry" />
        </mxCell>
        <mxCell id="MpkrW4YKsJFV3PJm8Ltm-49" value="exetend255" style="rounded=0;whiteSpace=wrap;html=1;hachureGap=4;fontFamily=Helvetica;labelBackgroundColor=none;fillColor=#e1d5e7;strokeColor=#9673a6;" vertex="1" parent="1">
          <mxGeometry x="960" y="500" width="170" height="30" as="geometry" />
        </mxCell>
        <mxCell id="MpkrW4YKsJFV3PJm8Ltm-50" value="" style="shape=curlyBracket;whiteSpace=wrap;html=1;rounded=1;labelPosition=left;verticalLabelPosition=middle;align=right;verticalAlign=middle;" vertex="1" parent="1">
          <mxGeometry x="930" y="380" width="20" height="150" as="geometry" />
        </mxCell>
        <mxCell id="MpkrW4YKsJFV3PJm8Ltm-51" value="FSP_HDR页面" style="text;html=1;align=center;verticalAlign=middle;resizable=0;points=[];autosize=1;strokeColor=none;fillColor=none;" vertex="1" parent="1">
          <mxGeometry x="995" y="350" width="100" height="30" as="geometry" />
        </mxCell>
      </root>
    </mxGraphModel>
  </diagram>
</mxfile>
